<?xml version="1.0" encoding="utf-8"?>
<!-- Generator: Adobe Illustrator 25.2.0, SVG Export Plug-In . SVG Version: 6.00 Build 0)  -->
<svg version="1.1" id="工作區域參考線" xmlns="http://www.w3.org/2000/svg" xmlns:xlink="http://www.w3.org/1999/xlink"
	 x="0px" y="0px" viewBox="0 0 707 370" style="enable-background:new 0 0 707 370;" xml:space="preserve">
<style type="text/css">
	.st0{fill:#A2865E;}
	.st1{opacity:0.7;}
</style>
<path class="st0" d="M133,281.5c-0.2,0.1-2.6,0.3-3.6,0.6c-1.2,0.4-2.5,0.7-3.8,0.8c-1.2,0.1-5.7,1.3-6.6,1.6
	c-0.6,0.2-12.8-1.8-13.3-2.1c-1.3-0.4-2.6-0.8-3.9-1.1c-1-0.4-1.9-0.8-2.7-1.4c-0.5-0.3-1-0.6-1.6-0.7c-0.7-0.2-1.4-0.5-2-1
	c-0.6-0.4-1-1.1-1.1-1.9c-0.4-1.7-0.9-3.3-1.6-4.9c0-0.1-1.6-11.5-1.6-12c0-1.6-0.7-7-0.7-7.9c0-1.1-0.1-2.3-0.3-3.4
	c-0.1-0.8-0.4-6.3-0.4-8.2s0.1-3.7-0.1-5.5c-0.2-2-0.5-8.4-0.2-9.5c0.2-0.6,0.6-5.1,0.6-5.4c-0.1-2.1-0.2-4.2-0.3-6.3
	c-0.1-1.3-0.1-1.2-1.4-1.3c-2,0-4-0.2-6-0.2c-0.6,0-1.2,0.2-1.7,0.3c-0.1,1.5,0.5,6,0.3,6.9c-0.2,0.8-0.1,1.6,0.1,2.4
	c0.5,1.6-1,23.1-1.1,23.6c0,0.2-0.2,0.3-0.2,0.5c-0.1,0.9-1,5.8-0.7,6.3s-2.6,11-2.6,12.1s-5.4,7.5-5.5,7.9c-0.1,0.1-3,3.2-3.2,3.4
	c-0.9,0.8-1.9,1.6-2.8,2.4c-1.5,1.1-3.2,1.9-5,2.5c-0.9,0.4-1.8,0.8-2.6,1.4c-1.8,0.8-3.8,1.4-5.8,1.6c-0.5,0-12.5-2.5-13.4-2.9
	c-1.4-0.5-2.8-1.2-4.1-1.7c-0.9-0.2-1.7-0.7-2.4-1.3c-0.7-0.8-4.7-4.7-5.7-6.6c-3.6-7.1-3.6-8.8-3.6-9.5s-2-7.6-2.8-10.5
	c0.2-0.1-0.9-4.8-0.9-5.5c0-0.6-0.1-1.3-0.1-1.9c-0.2-1.3-0.4-2.7-0.4-4c0-1.3,0-2.6-0.2-3.9c-0.4-0.6-0.7-6.6-0.7-7.4
	c0-0.4-0.1-0.9-0.2-1.3c-0.1-0.4-0.1-0.8-0.1-1.2c0.1-1.5,0-6.6-0.2-7.7c0-0.2-0.2-4-0.1-5.7c0-0.9,0.3-1.7,1-2.3
	c0.9-0.7,4.5-4.3,5.6-4.7c1.9-0.1,3.8,0,5.7,0.4c1.4,0.5,2,1.7,2.7,2.8c0.3,0.5,2.9,8.1,2.5,9.4c-0.4,1.6-0.8,3.2-1.2,4.9
	c-0.1,0.4-0.1,0.8-0.2,1.3c1,0.1,1.9,0.3,2.9,0.3c1.4,0.1,2.9,0.1,4.3,0.1h2.3c0.3,0,3.9,0.2,5.4,0.2c0.5,0,1,0,1.5,0
	s3.1-0.3,3.6-0.4c1-0.2,8.4-1.1,8.8-0.6c0.1,0.1,0.5,0.1,0.8,0c0.6-0.1,1.3-0.2,1.9-0.4s0.9-0.4,0.7-1.1c-0.2-0.9-0.4-1.7-0.6-2.6
	c-0.3-1.7-0.6-3.5-1-5.2c-0.1-1-0.4-2.1-0.8-3c-0.3-0.6-0.9-1.1-1.6-1.2c-1.4-0.2-2.6-0.8-3.8-1.6c-1.2-0.7-2.5-1.2-3.9-1.5
	c-1.6-0.6-3.1-1.5-4.4-2.7c-0.1-0.2-0.2-0.5-0.4-0.6c-2.7-1.6-5.5-9.3-5.6-10.2s-0.7-3.6-0.8-4.1c-0.5-1.6-0.8-3.3-1-5
	c-0.2-2-0.7-4-1.4-5.8c-0.1-0.3-0.9-14.9-0.8-15.1c0.3-1,0.2-13.6,1.2-15.2c0.4-0.8,0.9-1.6,1.5-2.3c0.9-1.3,1.7-2.6,2.4-4.1
	c0-0.1,5.5-1.7,6.1-1.2s1.5,0.9,2.6,1.5c0.4,0.7,3.5,2.4,3.9,2.9c1,1.1,2.6,6.5,2.2,6.8l0.3,1.5c1.8,1.5,3.8,1.1,5.7,1.2
	c2.1,0.2,4.3,0.2,6.4,0.3c2.4,0.1,4.9,0.1,7.3,0.1h1c1.4,0.2,2.8,0.2,4.1,0.1c1.4-0.2,9.2-0.1,11.4-0.1c0.2,0,0.4,0,0.7,0
	c1.4,0.1,2.8,0.1,4.2,0.2c1.5,0.1,3,0.3,4.6,0.6c0.7-0.1,1.2-0.2,1.7-0.3c0.3-0.1,0.5-0.2,0.7-0.4c0.1-0.1,2.4-11.6,3.6-12.6
	c1.7-1.3,6.6-1.5,7-1.5c1.5-0.1,2.6,0.8,3.7,1.7c0.3,0.2,0.4,0.7,0.6,1c0.4,0.7,0.7,1.4,1.1,2c0.7,1.3,1.3,2.6,1.8,4
	c0.6,1.7,1,3.4,0.9,5.2c0,1.3,0.3,2.5,0.4,3.8c0.1,0.7,0.3,12.5,0.1,13.3c-0.4,1.2-2.8,9.1-3.1,9.6c-0.1,0.3-0.2,0.6-0.4,0.9
	c-0.8,0.7-2.3,6.8-2.7,7.2c0,0.6-9.9,15.2-10,15.4s-0.3,0.5-0.4,0.7s-1.7,2.8-2,3.5c-0.1,0.3-0.3,3.5-0.4,4.1s-0.2,6-1.8,6.7
	c1.8,0.8,3.7,1.4,5.7,1.7c2.4-0.2,4.7-0.2,7.1,0.1c0.3,0,7.6,0.3,8.1,0.4c2,0.4,3.8-0.2,5.8-0.3c1.5-0.1,3,0,4.3,0
	c1.2-1,0.9-2.1,0.9-3.1s-0.3-2-0.4-3c-0.1-1.4-0.1-2.8-0.2-4.2c0-0.3-0.1-4.4-0.1-6.1c-0.1-1.2,0.1-2.4,0.6-3.6
	c0.5-1.3,1.3-2.5,2.2-3.6c1.2-1,2.7-1.7,4.3-2c1.7-0.3,2.9,0.7,4.2,1.3s1.8,2,2.5,3.2c0.7,1.5,1.1,3.1,1.1,4.8
	c0.1,1.6,0.5,3.2,0.5,4.8c0,1.4,0.2,2.7,0.3,4c0,0.1,0.6,5.7,0.5,6.8s-0.2,5.1-0.3,5.8c-0.1,1.9-0.2,3.9-0.3,5.8
	c-0.1,1-1,14.1-1.8,15c-0.1,0.1,0,0.3,0,0.4c-0.1,0.9-0.2,1.7-0.4,2.6c-0.1,0.6-0.2,2.2-0.3,2.2c-0.5,0.2-1.4,5-1.6,5.4
	c-0.4,0.6-3.4,10.5-3.5,11.2c-0.8,2.6-1.8,5.1-3,7.5c-0.5,0.5-1,0.9-1.6,1.3C139.4,278.6,133.7,281,133,281.5z M97.8,184.7
	c0.3,0,0.7,0,1-0.2c0.4-0.4,4.2-0.7,4.6-0.8s0.7-0.4,1.1-0.5c1-0.1,1.2-0.8,1.2-1.7c0-1.4,0.1-2.8,0.2-4.2c0-0.3-3.4-1.8-4-1.9
	c-1.8,0-3.7,0.1-5.5,0.3c-0.6-0.5-7.3-0.3-7.2-0.7c-0.8,0-3.8,0-4.2,0.6s-13.9,0.2-14,0.3c-0.7,0.5-6.2,0.1-6.3,0
	c0.4-0.3-1.1-0.2-2.2,0.1c-0.3,0.1-3.5,0-4.8,0c-0.5,1.5-0.3,3.1,0.5,4.4c0.2,0.5,0.4,0.9,0.7,1.3c2.5,1.5,5.1,2.7,7.9,3.6
	c0.4,0,0.7,0,1.1,0c2.5,0.3,8.1,0.3,8.3,0.4c1.3,0.3,2.7,0.5,4.1,0.5c0.9-0.1,5.6-0.6,6.3-0.6C87.9,185.9,96.6,184.7,97.8,184.7
	L97.8,184.7z M135.4,244.4c-0.3,0.2-5.9-0.4-7.1,0.4c-1-0.6-7.4,0-7.5-0.2c-0.8,0.1-7.8,0.8-8.8,0.1c-0.4-0.2-3.1,0.1-3.9,0.1
	c-1.6,0-2.1,0.5-1.8,2.1c0.1,0.8,0.2,3.8,0.8,4.5c0.1,0.2,0.3,1.7,0.4,2.1c0.4,1,0.9,1.9,1.3,2.9c0.4,0.8,1.1,1.5,2,1.7
	c0.7,0.2,1.3,0.3,2,0.3c1,0.2,2,0.3,3,0.5c2.7,0.1,5.4,0.1,8.2-0.1c0.7-0.2,1.4-0.1,2,0.1c0.2,0,6.8-0.5,7.6-2
	c0.1-0.2,1.4-3.6,1.5-3.7c0.3-1.6,0.5-3.3,0.8-4.9C135.7,248.1,135.9,247.1,135.4,244.4L135.4,244.4z M36.5,246.1
	c0.5,2.1,0.9,4,1.3,5.8c0.6,1.1,1.2,2.1,1.9,3c1.7,1.1,3.5,2.2,5.6,2.3c0.4,0,3,1.2,3.7,1.1s9.7-0.8,10.6-0.8c0.6,0,1.1-0.1,1.6-0.2
	c0.6-0.1,1.1-0.4,1.4-1c0.8-1.4,1.4-2.9,1.6-4.5c0.1-0.9,0.5-1.8,0.6-2.7c0.2-1.3,0.4-2.5,0.4-3.8c0-0.4-0.1-0.8-0.3-1.2
	c-0.6-0.1-1.2-0.1-1.8,0c-0.6,0.1-3.9,0.1-4.4,0.4c-0.8,0.4-4.1,0.1-4.9,0.1c-1,0-2,0.2-3,0.3s-1.9,0.1-2.9,0.2
	c-0.6,0.1-9.4-0.4-9.6-0.7C37.9,245.2,37.3,245.7,36.5,246.1z"/>
<path class="st0" d="M461.5,236.9c-0.4-0.4-0.7-0.9-1-1.4c-0.7-1.2-1.3-2.5-2-3.7c-0.4-0.9-0.6-1.9-0.5-2.8c0.1-1.3,0.7-2.2-1-2.4
	c-0.3,0-0.7-0.1-1.1-0.1c-2.1-0.1-4.2-1.1-6.4-1.3c-2.5-0.3-5.1,0.2-7.6,0.2c-0.8,0-1.6-0.1-2.4-0.1c-2.7,0-5.4-0.2-8.1,0
	c-3.5,0.2-7,0.6-10.5,0.8c-1.1,0.1-7.8,1.4-8.3,1.4c-0.9,0-1.3,0.5-1,1.3s0.4,1.5,0.5,2.2c1.9,0.1,3.7,0.3,5.5,0.4
	c1.3,0.1,2.7,0,4,0.1c0.9,0.1,5.6,0.2,5.9,0.2s3.9-0.2,4.5,0c1.9,0.6,9.5,0.2,11.5,0.1c1.3-0.1,2.7,0.4,4,0.5c1.5,0.1,3,0.1,4.5-0.1
	c2-0.2,3.4,1.8,4.3,3.3c1,1.7,2.2,3.4,2.5,5.4s-1.2,3.9-2,5.7c-0.6,1.3-1.4,1.1-2.6,1c-1.8-0.2-3.6,0.2-5.4,0c-1.3-0.1-2.7-0.1-4,0
	c-1.1,0.2-1.8,1.2-1.6,2.3c0.1,1.3-0.2,2.5-0.1,3.7c0.1,2.1,0.3,4.1,0.4,6.2c0,0.6,0,1.2-0.1,1.8c0,0.1-0.1,0.2,0,0.3
	c0.5,2.2-0.1,7.4-0.5,8.1c-0.3,0.5-0.6,1.4-0.9,2c-1.6,3.1-5.9,6.3-9.4,6c-0.7-0.9-0.5-2.1-0.8-3.3c-0.2-1.2-0.2-2.4-0.3-3.5
	c-0.1-1.7-0.1-3.5,0.2-5.2c0.4-1.9,0.5-3.8,0.4-5.7c-0.2-2.1-0.6-4.1-0.8-6.2c-0.2-1.2-0.3-2.4-0.2-3.6c0.1-1.3-0.2-2.5-1-3.5
	c0.2,0.2-2.3,0.3-2.4,0.3c-1,0.5,0.1,2.1,0.5,2.6c1.8,2.2-0.9,11.6-2.1,13.7c-1.3,2.4-7.4,7.1-8.1,7.2c-0.9,0.1-2-1.1-2.4-1.8
	c-0.8-1.1-1.6-2.3-2.5-3.3c-0.5-0.6,0.2-3.6,0.9-4.3c0.2-0.1,0.4-0.2,0.6-0.2c1.2-0.1,2-3.5,2-4.5c0.1-1.6,0-3.2-0.1-4.8
	c0-0.4-0.5-0.8-0.7-1.1l-3.9-0.2c-0.7-0.1-1.3,0.3-1.5,1c0,0,0,0,0,0c-0.5,1.7-2.1,6.9-2.9,7.6c-0.2,0.2-1.6,2.4-2.1,3.2
	c-0.2,0.4-0.5,0.8-0.7,1.2s-0.6,0.9-0.9,1.2c-0.4,0.4-0.8,0.9-1.1,1.4c-1.1,2-2.8,3.6-4.7,4.8c-3.7,2.5-8.6,3.8-12.9,5
	c-1.6,0.5-3.9,1.6-5.6,1.3c-0.8-0.1-4.6,0.4-5.7,0.1c-0.7-0.3-1.2-0.8-1.4-1.5c-0.2-1-0.7-2-0.9-3c-0.9-3.9,1.9-15,1.6-15.4
	c0.3-0.4,0.6-0.8,0.9-1.1c0.8-0.8,3.4-3.4,3.4-3.2s5.9,0.3,6.3,0.3c0.6-0.1,5.8-2.6,6.4-2.8c0.9-0.3,1.9-0.8,2.8-1.2
	c0.8-0.6,5.2-5,6.2-5.8c0.6-0.5,3.2-10.4,3.3-11.1c0.2-1.8,0.3-3.7-0.9-5.3c-0.6-0.7-6.1-11-6.7-13.1c-0.2-0.8-2.8-7.2-3.9-7
	s-2.1,0.6-3.2,0.8c-1,0.1-1.9,0.1-2.9,0c-0.6,0-1.2-0.1-1.9-0.2c-0.8-0.8-1.6-1.8-2.5-2.7c-0.2-0.3-0.3-0.5-0.4-0.9
	c-0.5-1.9-1.1-3.7-1.6-5.6c-0.1-0.8-0.1-1.5,0.2-2.2c0.2-1,0.6-1.9,1-2.8c0.4-0.5,0.8-0.9,1.2-1.3c0.4-0.4,0.8-0.8,1.1-1.3
	c0.5-1,7.1-3.2,8-3.2c1.9-0.1,7.8-1.4,8-1.4c2.4,0.1,4.9,0,7.2-0.5c0.2,0,0.5-0.1,0.7-0.1c2.8-0.1,5.5-0.2,8.3-0.4
	c3.1-0.1,6.1-0.3,9.1-0.5c1.8-0.1,1.6-1.3,1.3-2.6c-0.3-1.4-0.3-2.8-0.2-4.2c0-2.7,0.1-5.4,0.2-8.1c0-1.1-0.1-2.2-0.1-3.3
	c-0.1-2.3,0-4.7-0.2-7c-0.2-1.8,0.2-3.7-0.4-5.5c-0.1-1.9-0.2-3.7-0.5-5.5c-0.4-1.8,0.4-3.4,1.3-5c0.2-0.4,0.5-0.7,0.7-1.1
	c0.4-0.7,1.1-1.2,1.8-1.5c1.2-0.6,7.4-1.7,8.3-1.5c0.3,0.1,0.5,0.2,0.7,0.4c1.1,0.8,2.2,1.5,3.2,2.3c0.7,0.5,1.3,1.3,1.6,2.1
	c0.9,2.2,1.2,4.7,0.7,7.1c0,0.1,0,0.2,0,0.3c-1.1,1.6-0.7,3.5-1.1,5.3c-0.1,0.8-0.1,1.6,0,2.4c0.1,2.1-0.6,13.7-0.2,13.7
	c0,0.1,0.1,3.6,0.1,5.2c0,0.1,0.8,3.6,1.2,5.2c0.1,0.3,0.3,0.4,0.6,0.5c1.2,0.1,2.5,0.1,3.7,0.2s2.1-1,1.4-2.1
	c-0.4-0.6-0.2-4.9-0.2-5.9c0-1.5-0.1-3-0.1-4.5c0-0.8,0.2-1.6,0.2-2.4c0-1.4-0.1-2.9-0.2-4.3c0-0.3,0.3-3.8-0.1-5
	c-0.3-1.2-0.3-2.4,0-3.6c0.2-1.6,0.3-3.2,0.2-4.8c0-0.5,0-0.9,0-1.4c0-1.5,1.5-6,1.6-7.2c0.1-1.1,0.5-2.2,1.1-3.2
	c0.8-1.3,1.7-3.7,3.1-4.4c0.7-0.5,1.5-0.8,2.3-0.9c1.6,0.1,3.7,1.8,4.6,3c0.9,0.9,1.6,2,2.2,3.1c0.2,0.6,0.4,1.3,0.5,1.9
	c0.3,1.3,0.6,2.7,0.7,4c-0.1,0.9-0.2,1.7-0.3,2.6c-0.2,2.2,2.8,2.2,4.4,2.1c1.4-0.1,2.8,0.1,4.2,0.1c1.7,0,3.3,0.2,4.9,0.7
	c2.1,0.4,4.2,0.8,6.3,1.2c0.3,0.1,0.6,0.2,0.9,0.4c0.7,0.3,0.5,2.8,0.4,3.4c-0.2,1.4,0.3,2.7,0.3,4.1c0,1.6-0.4,3.2-0.4,4.8
	c0,1.4,0.7,2.7,0.8,4c0.1,1.6-2.3,3.7-4,3.6c-0.5,0-8.2,0.6-10.1,0.5c-1.1,0-8.4,0.3-8.6,0.1c-0.5-0.4-1.2-0.6-1.8-0.4
	c-0.1,0.3-0.2,0.6-0.2,0.9c0,1.9-0.1,3.9,0,5.8c0.2,1.1,0.5,2.2,0.8,3.3c0.1,0.5,0.6,0.8,1.1,0.8c3.3,0.2,6.6,0.4,9.9,0.6
	c0.8,0,1.6,0.1,2.4,0.3c0.5,0.1,4.1,0.2,4.9,0.2s6.3,1.4,6.8,1.5c3.1,0.8,6.3,1.3,9.5,1.3c2.5,0.1,4.9,0.4,7.3,0.8
	c1.2,0.3,2.4,0.6,3.6,0.8c1,0.1,2.3-0.1,3.2,0.4c1.9,0.9-0.3,2.4-1.1,3c-1.5,1.3-2.7,3-3.3,4.9c-0.5,1.2-1.5,2.1-2,3.3
	c-0.4,1.1-0.9,2.1-1.5,3c-0.5,0.5-1.1,0.9-1.8,1c-1.6,0.2-3.1,0.2-4.7,0.1c-2.8-0.1-5.6-0.4-8.4-0.5c-0.3,0-0.6,0.1-0.8,0.4
	c-0.8,1.3-1.6,2.7-2.4,4c-0.5,0.9-1.4,2.1-1.4,3.2c0,1.6,2.4,1.5,3.5,1.9c1.2,0.5,2.2,1.1,3.3,1.8c0.8,0.5,1.7,2.8,1.8,3.7
	c0,0.4-1,3.8-1.4,3.7c-1.1,0.7-2.1,1.4-3,2.3c-0.6,0.5-1.2,1-1.8,1.6c-2.1,0-4.3-0.2-6.4-0.6c-0.9-0.2-1.8-0.4-2.8-0.4
	c-0.6-0.1-1.9-0.8-2.4-0.2c-0.8,0.9,1.1,2.2,1.5,2.9c0.8,1.1,3.8,5.3,3.9,5.5c0.9,1,1.7,2,2.5,2.9c1.1,1.2,2.3,2.4,3.5,3.7
	c0.6-0.9,1.1-1.9,1.6-2.8c0.1-0.3,1.8-3.5,1.9-4c0.7-0.4,1.3-1,2.1-1.3c2.2-0.9,4.6-0.6,6.5,0.8c2.5,1.8,0.6,3,0.2,5.4
	c-0.4,1.3-1,2.5-1.8,3.6c-0.8,1.6-2,3.1-2.9,4.6c-0.3,0.4-0.3,0.9,0,1.3c0.5,0.7,1,1.4,1.6,2c0.8,0.7,1.5,1.4,2.1,2.2
	c0.7,0.7,1.6,1.2,2.5,1.6c0.5,0.3,0.9,0.6,1.4,0.9c0.8,0.7,1.6,1.2,2.6,1.7c1.5,0.6,7.7,3.3,9.3,3.9c2.7,1.1,5.6,1.1,8.4,1.9
	c0.6,0.1,1.3,0.2,1.9,0.3c1.2,0.1,2.5-0.1,3.7-0.3c1.3-0.1,2.5-0.6,3.5-1.5c0.6-0.5,0.9-1.2,1.5-1.7c0.7-0.4,1.4-0.7,2.2-0.8
	c0.4,0.6,1.3,0.9,1.6,1.4c0.5,0.9-1.6,6.4-2.1,7.9c-0.9,2.6-2.5,4.3-4.2,6.4c-0.4,0.4-0.8,0.7-1.3,1c-1,0.8-5.1,3.8-6.1,4.4
	c-0.5,0.4-1.1,0.7-1.7,1c-0.8,0.3-7.6,2-8.8,2.4c-0.7,0.2-8-0.1-8.9,0c-0.9-0.5-2.1-1.1-3.4-1.6c-2.9-1.4-8.4-6.9-9.2-7.8
	s-3.8-4.2-4.5-4.9c-0.3-0.2-0.9-1.1-1.3-1c-0.7,0.1-2.9,7-3.8,9.5c-0.9,1.8-2,3.5-3.2,5.1c-0.9,0.6-1.9,1.1-3,1.2
	c-1.1,0.3-2.2,0.7-3.3,1.2c-0.9,0.4-1.9,0.4-2.8,0.8s-2.5,1.4-2.5,1c0.2-1.2,0.5-2.5,0.7-3.7c0.1-0.8,0.3-1.6,0.5-2.4
	c0.6-1.6,2.2-5.9,2.4-6.5c0.3-0.8,3-7.1,4-9.1c0.6-1.3,1.4-2.5,2-3.8s1-2.7,1.5-4.2c-0.4-0.5-2.9-4.7-3.5-5.8
	c-0.2-0.4-6.9-9.5-7.3-10.2c-0.1-0.2-0.2-0.4-0.3-0.5 M447.6,210.3c-0.4-1.4-0.8-2.8-1-4.3c-0.2-1.2-2.3-4.1-3.1-4
	c-0.9,0.1-1.9,0.2-2.9,0.2c-1.9,0-3.8,0-5.7-0.1c-2.5-0.1-5.1,0.5-7.6,0.2c-0.6,0-1.2,0-1.7,0.2c-3.2,0.5-10,0.2-10.1,0.3
	c-1.5,0.3-3.1,0.5-4.6,0.8c-0.9,0.2-1.9,0.3-2.8,0.2c-0.8-0.1-1.7,0-2.5,0.2c-0.8,0.1-1.4,0.8-1.4,1.6c-0.1,1.2-0.3,2.6,1,3.3
	c1.5,0.6,3,1.1,4.6,1.4c1.6,0,3.2-0.2,4.7-0.5c1.6-0.1,3.2-0.2,4.7-0.1c1.1,0,2.3,0,3.4,0c0.6,0,3.7,0.2,4.5,0.2
	c3.4,0,6.8,0.1,10.2,0.2c2.8,0.1,5.7,0.5,8.5,0.3C446.4,210.3,446.8,210.3,447.6,210.3L447.6,210.3z M473.6,204.3
	c0.3-0.8,0.8-2.1,0.2-2.9c-0.8-1.1-1.9-0.1-2.8,0.2c-1.2,0.4-2.5,0.7-3.8,0.8c-1.6,0.2-3.3,0-4.8,0.6c-3.2,1.4,1,7.5,2.9,8.4
	c1.8,0.9,3.8,0.8,5.5-0.1c1.7-1.1,1.7-3.5,2.2-5.3C473.1,205.6,473.4,205,473.6,204.3L473.6,204.3z"/>
<path class="st0" d="M446,255.4c0.1-1,0.7-1.8,1.6-2.2l2.2-0.7c0.1,0,1.5,0.5,1.9,0.6c2,0.3,6.2-0.8,7.6,1s0.1,6.2-1,7.8
	c-0.8,1.3-1.9,3.8-3.3,4.6c-2.9,1.7-7.2-3.4-7.8-5.8c-0.5-1.3-0.9-2.7-1.3-4.1C445.9,256.3,445.9,255.9,446,255.4z"/>
<path class="st0" d="M459.3,301.2h0.6c0,0.1,0,0.3,0,0.3c-0.2,0-0.4,0-0.6,0C459.3,301.4,459.3,301.3,459.3,301.2z"/>
<path class="st0" d="M266.2,248.5c-0.3-0.1-4.6-4.5-4.6-5.6c0-0.9,0.2-1.7,0.8-2.4c1.1-1.4,3.2-3.3,3.5-5.1c0.3-2.5-7.1-1.6-8-1.5
	c-1.7,0.1-3.4,0.4-4.9,1.1c-2.8,1.3-0.8,2.3,0.2,4.7c0.2,0.7,0.3,1.4,0.3,2.1c0.2,3,0.1,6-0.2,9c-0.1,2.2-0.9,5,1.1,6.4
	c0.7,0.5,1.5,0.9,2.3,1.2c0.2,0.1,0.5,0.2,0.7,0.2c2.1,0.1,10.4,1.6,11.7,1.2c0.3-0.1,11.2-1,11.5-0.8c0.5-0.9,7.2-2.7,8-3
	c1.5-0.7,6,1.5,5.9,3.2c-0.1,1.4-0.7,3-0.8,4.4c-0.3,2.3,0.1,4.6-0.4,6.9s-7.7,7.3-9.6,8.3c-2.6,1.2-5.5,2-8.4,2.3
	c-1.2,0.1-9.3,1.2-12.6,0.9c-1.4-0.2-2.8-0.5-4.1-0.5c-4-0.1-7.1-3.1-10-5.5c-4.6-4-10.8-9.4-11.4-16c-0.1-0.8-0.6-5.5-0.7-6.3
	c-0.6-2.9,0.1-7,0.4-9.9c0.5-5.8,0.3-11.6-0.4-17.3c-0.1-0.9-0.3-1.7-0.5-2.5c-0.4-1.6,1.5-6.2,1.9-7c0.3-0.7,4.7-3.9,4.7-4
	c1.1-2.4,13.7-2.8,14.9-2.6c2.9,0.4,5.8-0.3,8.6-0.8c-0.7-0.8-1.6-1.5-2.5-2.1c-1-0.4-2-0.7-3-0.9c-1.8-0.5-4.1-1.6-6-0.9
	c-0.7,0.2-1.4,0.2-2.1,0.2c0.1,0.6-10.1,1.1-10.7,1.3c-0.9-0.7-1.8-1.5-2.5-2.5c-0.5-0.9-0.9-1.9-1-3c-0.2-1.8-0.4-3.7-0.3-5.5
	c0-0.1,1.7-8,2-8.8c0.3-0.9,0.7-1.7,1.2-2.5c0.2-0.3,4.5-3.3,6.1-3.5c1.1-0.1,2.2-0.6,3.3-0.7c1.4-0.1,16.2,0.5,16.8,0
	c0.2-0.1,0.5-0.2,0.7-0.1c1.8,0.3,3.6,0.4,5.4,0.4c1.5,0.1,3.1,0.1,4.6,0.1c0.8-0.2,7.8,0.2,9.2,0.2c0.3,0,0.8-0.1,1,0.1
	c0.4,0.3,19.4,2.1,19.8,2.1c1.1-0.1,4.7,1.2,5.6,1.1s2.8,2,2.7,2.1c-0.5,0.2-0.2,3.3-0.3,3.9c-0.1,0.9-0.4,2.7-0.9,2.8
	c-0.6,2.3-1.3,5.1-1.7,5.1c-0.1,0.2-1.3,4.2-2.6,4c-0.9-0.1-1.8,0.4-2.7,0.2c-2.7-0.1-5.4,0-8.1,0.5c0,0.1-3.6,1.2-5,0
	c-1.1,0.2-2.2,0.5-3.2,0.8c-2,0.8-0.7,3-0.3,4.6c1.4,0.7,2.9,1.5,4.8,0.8c2.1,0,4.2,0.1,6.2,0.4c1.5,0.2,6.2,1.4,6.8,0.3
	c2.2,1.1,5-0.2,7.1,0.8c1.8,0.9,1.2,2.9,1.3,4.7c0.3,1.9,0.4,3.9,0.5,5.8c-0.5,3.9-1.2,7.9-2.1,11.7c-0.7,2.5-3.1,1.8-5.2,1.7
	c-1.6,0-7-0.4-8-0.6c-0.7-0.2-7.5-0.2-8.8-0.3c-1-0.1-2,0.2-3,0.1c-1.7-0.2-2.9,0.7-4.2,1.5c-0.4,0.3-0.6,0.8-0.7,1.3
	c-0.3,1.2-2.6,6.6-2.7,7c-0.2,0.7-2.6,5.9-3,6.6c-0.9,0.8-2.8,1.2-2.3,1.2c-0.2,0.5-2.3,0.9-3.3,1.4s-2.3,0.2-3.5,0.2
	c-0.3-0.1-0.5-0.2-0.5-0.5"/>
<path class="st0" d="M322.1,152.8c-0.1,0.2-1.4,10.6-2.1,11.6c-0.6,0.9-2.4,3.3-3.4,3.6c-0.6,0.2-7.4,1.7-8.2,1
	c-4.8-0.5-9.5-0.7-14.3-0.7c-1.4,0.3-2.9,0.4-4.3,0.3c-0.7-0.3-3.2,0.4-3.9,0.1c-0.5-0.1-5.3,0.1-7.2-0.1c-1-0.1-12.6-0.5-13.2-0.3
	c-2.2,0.8-4.5,0.6-6.8,0.5c-1-0.1-2-0.1-2.9,0.3c-0.2,0.1-0.5,0.1-0.7,0c-1.7,0-3.5-0.2-5.2-0.1c-1,0-8.3,1.5-9.3,1.9
	c-0.5,0.2-1.1,0.2-1.7,0.1c-1.4,0.1-2.8,0-4.1-0.1c-1,0.1-1.9,0.5-2.7,1.1c-0.2,0.7-1.9,4.4-1.1,5.5c0.5,0.8,1.6,7.3,2.4,9.5
	c0.4,1,0.9,10.3,1,13.7c0,1.7-0.1,3.5-0.4,5.2c-0.9,5.6-0.5,10.7-2.7,16.1c-0.5,1.3-4.2,6.6-4.4,6.8c-0.5,0.9-3.5,5.6-3.3,5.8
	c-0.8,0.9-1.7,1.8-2.4,2.8c-1,1.4-2.1,2.6-3.5,3.6c-2.5,2.1-4.6,4.5-7.4,6.2c-3.5,2.1-7,4.3-10.6,6.1c-3.4,1.7-8.9,5-12.6,2.8
	c-1.4-0.8-3-1.3-4-2.8c-1.2-1.6-2.9-2.8-4.2-4.4c-2.1-2.7,0.6-6.3,1.7-8.9c1.3-2.9,2.2-6.5,4.8-8.7c1.1-0.9,4.1-4.3,5.4-4.5
	c0.5-0.1,1-0.3,1.5-0.5c0.8-0.2,1.6,0,2.2,0.5c0.3,0.1,4.8,1.9,4.6,1.2c0.8,0,1.6,0,2.4-0.1c0.7-0.2,1.4-0.5,2.1-0.9
	c0.5-0.2,5.8-3.3,6-3.4c2.3-1,3.9-2.9,5.7-4.5c2-1.8,3.6-4.1,4.8-6.6c0.5-1.2,1.5-4.2,1.3-5.4c0-0.2-0.2-0.6-0.1-0.7
	c0.6-0.7,0-1.6,0.4-2.4c0.2-0.3,0-0.9,0.1-1.3s0-4.7,0.5-5.5c-0.1-2.3-0.4-4.5-1-6.8c-0.2-0.5-0.9-2.5-1.1-3
	c-0.1-0.5-0.3-0.9-0.6-1.4c-0.9-1.3-2-2.5-2.9-3.7c-0.6-0.8-4.6-4-4.7-6.3c0-0.4-1.3-5.4-1.4-5.5c-0.8-1.2-0.4-5.4-0.8-6.1
	s1.9-9.9,2.7-10.8c0.5-0.5,3-5.4,5-6c0.1,0,7.1-4.6,7.3-4.7c0.9-0.6,2-0.7,3.1-0.4c2.4-0.2,4.9-0.5,7.3-0.9c1.3,0.1,5.7,0.1,6.8,0.5
	s3.6-0.1,3.9,0s5.2,0.2,7.5,0.2c1.4,0,2.7,0.2,4.1,0.2c1.8,0.1,3.6,0,5.5-0.2c2.1-0.2,11.4,0.3,13.9,0c2.4-0.2,4.8-0.1,7.2,0.2
	c2,0.2,10.3,0,10.7,0.3c0.6,0.3,1.3,0.4,2,0.3l5.9,0.4c0.1,0,0.3,0.2,0.4,0.1c1.5-0.5,2.9,0.4,4.4,0.1c1.3-0.2,2.6,0,3.8,0.6
	c1.4,0.4,2.9,1.3,4.3,1.2S322.3,152.6,322.1,152.8z"/>
<path class="st0" d="M326,275c-0.3-0.1-0.7-0.2-1-0.3c-1.3-0.1-8.6-3.3-8.8-3.6c-1.3-1-2.8-1.8-4.3-2.5c-1.5-0.7-2.9-1.7-4.1-2.8
	c-1.1-1.1-2.2-2-3.5-2.9c-0.8-0.7-1.6-1.4-2.3-2.2c-0.4-0.5-0.8-0.9-1.2-1.3c-2.3-1.7-5.6-7-5.8-7.1c-1.8-0.6-5.5-9.1-6.1-10.3
	c0.4-2,2.1-2.9,3.6-3.6c0.9-0.4,6.4-0.8,8.3,0.6c0.9,0.6,1.9,1,3,1.3c0.6,0.3,1.1,0.6,1.6,0.9c1.2,0.7,2.3,1.7,3.5,2.3
	c1.6,0.8,3.3,0.5,5,0.2s14.4-0.1,15.7-0.3c1.8-0.1,3.5-0.4,5.2-0.7c1.5-0.5,7.1-5.6,7.3-6.2c0.8-0.7,2-0.6,2.7,0.3
	c0.1,0.1,0.1,0.2,0.2,0.3c-0.2,2.3-0.2,4.6-0.1,6.9c0.1,0.4-0.1,4.5,0.1,5.8c0.1,0.8,0.1,1.5,0,2.3c0,1.1,0.2,5.1,0.1,6
	c-0.4,2-1,4-1.9,5.9c-0.2,0.3-0.4,0.7-0.5,1c-0.2,2.4-1.7,4.1-2.8,6.1c-0.1,0.1-0.1,0.2-0.1,0.3c-1,2.5-6.2,3.6-6.5,4
	S327.9,275.7,326,275z"/>
<path class="st0" d="M658.8,190.2c-0.5,0.2-1.7-1-4.5,4.4c-0.9,1.5,0.7,4.1,0.4,4.2c-0.2,1.4,0.8,4,0.2,4.6s-1.1,1.3-2.2,1.2
	c0,0.3-2.1,0.5-2.6,0.6l-3.8,1c0-0.1-16.9,0.1-17.9-0.5c-0.1-0.1-5.4-0.2-7.9-0.1c-0.9,0-1.7,0.1-2.6,0.1c-1.6,0-3.3,0.5-4.8,0.4
	c-1.4,0-5.4,0.4-6.2,0.1l-1.7,1c0.2,1.2,0.2,2.4,0.2,3.7c-0.1,0.8-0.3,1.6-0.7,2.3c-0.3,1.2-0.2,1.1,0.7,2c0.7,0.7,1.6,1.1,2.6,1
	c0.8,0,1.4,0.5,2.3,0.6c4.2,0.3,8.3,0.2,12.5,0.1c2.6-0.1,5.2,0.2,7.7,0.2c2.4,0,13.7,0.7,14.7,0.7c1.3,0,2.6,0,3.9,0
	c1.1-0.1,2.2,0,3.2,0.2c1.2,0.3,2.5,0.6,3.8,0.7c0.6,0.1,0.4,3.6-0.1,3.6c0.4,0.4-0.7,8.6-0.7,9.2c-0.5,0.2-4.4,3.4-6.1,3.4
	c-1,0-4.9,1.2-5.8,1.2c-0.7,0-4-0.1-4,0c-2,0.7-4,0.3-6,0.3c-0.3,0-10.9,0.1-12.1,0.3c-2.5,0.3-5,0.4-7.5,0.3
	c-1.9,0-3.7,0.4-5.3,1.2c-0.3,0.1-3.6,0.4-4.8,0.7c-0.8,0.4-1.5,1.1-1.8,2c-0.8,1.6-6.3,14.2-6.5,15.2c-0.1,0.3-5,8.9-5.6,9.6
	s-1.5,1.7-2.2,2.6c-1.3,1.4-2.8,2.7-4.4,3.8c-2.2,1.4-4.3,2.9-6.5,4.3c-0.3,0.2-9,2-10.7,0.5c-5.2-4.5-8.2-8.1-9.9-14.9
	c-1.1-4.4-2.8-12.7-0.2-16.9c0.3-0.5,7.2-3.6,7.7-3.7c0.1,0.1,0.7-0.2,0.9-0.4c1.2-0.8,7.6-1.5,8.5-1.7c1.4-0.4,2.6-1.2,3.6-2.2
	c1.5-1.7,3.3-3.3,4.3-5.5c0.1-0.2,1.8-2.6,2.4-3.6c0.4-0.8,0.7-1.6,1.1-2.4c0.1-0.1,0.1-0.3,0.2-0.4c0.2-1.3,1.4-6.2,2-7.2
	c0.4-0.6,1.1-8.1,0.8-9.5c-0.3-1.9-0.6-9.3-0.8-10.5c-0.1-0.6-0.9-5.5-1-6.1c-0.3-1.4-0.6-2.7-0.9-4.1c-0.1-0.5-3.7-5.7-4.2-6.4
	c-0.9-1.2-1.7-2.5-2.5-3.9c-0.3-0.7-2.2-5.8-2.2-8c0.2-1.4,0.3-2.8,0.2-4.2c-0.1-1.2-0.2-2.3-0.1-3.5c0.1-0.9,0.2-1.7,0.3-2.6
	c0.4-2.1,0.7-4.3,0.8-6.5c0.1-0.7,0.4-1.3,0.8-1.7c0.7-0.9,1.6-1.6,2.5-2.2c0.9-0.5,1.9-0.8,2.9-0.9c0.8-0.2,15.8-2.1,16.5-2.1
	c1-0.1,7.2-1.3,8.8-0.9c1.2,0.2,2.4,0.2,3.7,0.2c2.9,0,5.9-0.1,8.8,0s6.1,0.1,9.1,0.1c3.3,0.1,6.7,0.1,10,0.2
	c1.2,0,9.5,1.5,10.9,1.1c1.1,0,2.1,0.1,3.2,0.4c0.4,0.1,7,1.1,8.1,1.3s4.8,1.1,5.5,1.2c1.2,0.1,2.5,0.2,3.7,0.4
	c1.6,0.5,3.2,0.7,4.8,0.7c0.5,0,3.9-0.2,5.2-0.3c0.8,0.1,1.5,0.1,2.3,0.1c1.9-0.4,3.5,0.3,5.2,0.9s3.5,3.4,3.5,3.6
	c-0.2,2.5-0.3,4.9-0.8,7.4c-0.3,1.3-6.5,9.3-7,10.8c-0.6,1.3-1.3,2.5-2.2,3.6c-0.9,1.2-1.4,2.6-1.7,4.1c-0.3,1-1,9-1,9.5
	c-0.1,1.3-0.3,5.4-0.3,6.2c0,1.8,0,6.7-0.1,7.4c-0.2,1.5-0.2,3-0.1,4.4c0.3,2.9,0.3,10.5,0.2,11.5c0,0.2,0.7,5.2,0.7,6
	c0.1,2.1,1.3,12.5,1.4,13.4c0.2,1.7,0.4,3.4,0.6,5.1c0.2,1.9,1.5,12,1.6,12.5c0.3,1.6,0.6,3.1,0.9,4.7c0.2,0.8,0.3,1.5,0.5,2.3
	c0.5,2.6,1.5,6.2,1.3,9c-0.4,2-1.1,3.9-2.1,5.6c-1.3,2.3-2.9,4.5-4.8,6.3c-2.1,2-9,0.9-10.4-1.4c-1.5-2.9-2.4-6-2.8-9.2
	c-0.2-1.6-0.8-3.2-1-4.8s-1.9-16.7-2.2-18.3c-0.2-1.3-0.4-2.6-0.5-3.8c-0.3-3.1-0.5-6.1-0.7-9.2c-0.1-1-0.8-8.3-0.9-10.1
	c-0.1-1.1,0-2.2-0.1-3.2c0-0.5-0.4-3.3-0.3-3.8c0.1-1.3,0.2-2.6,0.1-4c0-2.2-0.1-4.3-0.2-6.5c0-1.9-0.1-3.8-0.2-5.7
	c-0.1-1.5-0.2-3-0.3-4.6c0-0.3,0-0.6,0.1-0.9c0.3-1.7,0.3-3.3,0-5c-0.2-1.2-0.3-2.4-0.2-3.7 M660.9,186.8c-0.5-1.5,0.5-2.7,0.5-4.2
	c-0.1-1.7,0-3.5,0-5.2c0-0.6-0.3-0.9-0.8-1.2c-2.8-1.6-6-1.6-9-2.3c-0.2,0-7.9-0.1-9,0.4c-0.4,0.2-5.4,0.1-7.4,0.1
	c-1.8,0-12.8,0.1-14-0.5s-6.1-0.2-7.3-0.2c-0.8-0.1-1.6,0.1-2.2,0.6c-0.6,0.5-7.5,1.2-8.3,1.2c-1.1,0-2.1,0.2-3.2,0.5
	c-0.7,0.3-0.9,2.6-1.1,3c-0.4,0.8-0.3,1.8,0.4,2.4c0.5,0.8,1,1.7,1.3,2.6c1.2,0,6.8,0.5,7.9,0.2c0.9-0.1,1.8-0.1,2.7,0
	c0.6,0,1.1,0,1.7,0c2.3,0,4.6-0.1,6.9-0.1c1.2,0,7.7,0.4,9.7,0.5c2.2,0.1,4.5,0.4,6.8,0.4c2.1,0,6.5,0.1,6.6,0.1
	c3.2,0.3,6.4,0.6,9.5,1c0.7,0.1,1.3,0.5,2,0.5"/>
<g class="st1">
	<path class="st0" d="M103.3,122c5.9,4.3,13.3,4.9,20.4,5.1c3.4,0.1,6.8-0.5,10.1-1.7c2.5-0.9,4.8-2,7.4-2.8c3.1-0.9,7.5,0,10.7,0.2
		c3.3,0.2,6.5,0,9.8-0.4c1.7-0.4,3.4-1,4.9-2c1-0.6,2-1.2,3.1-1.8c-4.6-1-5.3-1.1-2.1-0.4c5.1,1.2,14.1,3.1,18.4-0.7
		c-0.1,0.1-5.6-1.1-6.1-1.2c-1.3-0.1-5.1-0.9-6.2,0.1c3.4,1.6,3.7,2,0.8,1.2c-1.3-0.3-2.7-0.5-4.1-0.7c-2.5-0.4-5-0.5-7.5-0.6
		c-6.1,0.1-10,5.1-16.1,4.9c-5.2-0.2-10.5-1.2-15.7-0.3c-3.2,0.7-6.3,1.7-9.2,3.1c-1.9,0.8-5.2,0.3-2.2,1.3
		c-1.6-0.7-3.2-1.6-4.5-2.7c-1.6-1.2-5.6-1-7.5-1.1C107.2,121.6,102.7,121.6,103.3,122L103.3,122z"/>
</g>
<g class="st1">
	<path class="st0" d="M191,112.6c9.9-9.5,21.6-18.6,29.8-29.6c2.9-3.9,4-8.5,4.9-13.1c0.6-3,1.2-6.1,2-9.1c0.3-1,0.6-1.9,1-2.9
		c0.3-0.9,2.9-4.2,0-1.9c1.8-1.4,4.3-3.2,5.5-5.2c0.3-0.5-3.4,1.9-3.8,2.2c-3.7,2.7-6.9,6-9.6,9.7c-2.9,4.3-3.5,10.2-4.5,15.2
		c-3.2,16.4-19.2,27-30.7,38c-0.3,0.3-3.2,3.3-1.1,2.1C186.8,116.4,189,114.6,191,112.6L191,112.6z"/>
</g>
<g class="st1">
	<path class="st0" d="M236.6,55.1c4.6-6,12.3-2.2,17.4,1c2.7,1.8,5.7,3,8.9,3.7c2.9,0.5,7.7-0.1,9.9,2.2c1.4,1.5,1.8,1.2,0.7-0.5
		c-1.5-2.5-3.3-4.8-5.3-6.9c-5.2-5.6-13-3.6-19.5-7.1c-5.7-3.1-14.1-9.2-19.6-2.1C227.9,46.9,236.6,55,236.6,55.1L236.6,55.1z"/>
</g>
<g class="st1">
	<path class="st0" d="M238.1,67.8c-7.9,12.6-15,28.1-26.3,38c-1.5,1.3,5.4,11.1,5.2,11.2c11.3-9.9,18.4-25.5,26.3-38
		c0.7-1.1-1.6-4.9-2-5.9C241.1,72.8,238.2,67.7,238.1,67.8L238.1,67.8z"/>
</g>
<g class="st1">
	<path class="st0" d="M350.3,50.2c10.1,4.6,15.6,14.9,22.6,22.9c6.4,7.4,14.4,13.2,21.5,19.9c4.1,3.6,7.6,7.8,10.4,12.5
		c1.6,2.8,2.2,5.4,4.7,7.7s12.6,9.6,15.7,5.4c0.3-0.4-9.8-7.4-10.6-6.3l-0.7,0.8c-4.2,0.2-3.1,1.2,3.6,3.2c-1.1-1.5-1.6-3.4-2.3-5.1
		c-2-4.3-6-8.1-9.3-11.4c-7.3-7.3-15.7-13.3-22.7-20.9c-6.3-6.8-11-14.6-18.1-20.7c-6.4-5.6-14.3-9.7-22-13.2
		c-1.9-0.9-2.1-0.5-0.4,0.8C345.1,47.4,347.6,48.9,350.3,50.2L350.3,50.2z"/>
</g>
<g class="st1">
	<path class="st0" d="M382.9,71.5c10.3-10.6,24.6-15.4,39.2-14.3l-4.4-11.3c-1.3,6.5,2,13.7,4.9,19.4c3.5,7,10.3,10.9,17.1,14.3
		c9.4,4.8,16.6,10.5,24,18c8.3,8.5,16.3,17.4,25,25.4c7.7,7.2,18.1,1.8,27.2,1.5c10.3-0.3,20.5,2.9,30.8,3.4
		c17.1,1,41.8-13.9,55,3.4l-4-11.4l-4.5,2c-1.1,0.5,3.7,11.9,4.3,11.6l4.5-2c1.2-0.5-3.2-10.4-4-11.4c-9.6-12.6-27-8.3-40-5.4
		c-9,2-17.5,1.8-26.5,0.5c-9.6-1.4-18.8-3.2-28.5-1.3c-4.6,0.9-8.6,1.9-13.3,0.8c-4.3-1.1-8-6.1-11-9.1
		c-7.3-7.5-14.6-14.9-21.8-22.4c-5.2-5.4-11.2-9.9-17.8-13.3c-4.1-2-8.1-4.1-12-6.5c-1.5-1.1-2.9-2.3-4.2-3.6
		c-1.3-2-1.6-1.8-1.1,0.5c0-1.1,0.1-2.2,0.4-3.3c0.3-1.5-2.8-11.2-4.4-11.3c-14.6-1-28.9,3.8-39.2,14.3
		C376.8,61.8,383.5,70.9,382.9,71.5L382.9,71.5z"/>
</g>
<g class="st1">
	<path class="st0" d="M319.1,44.6l-9.6,16.2c-2.8,4.7-5.2,10-11,11.3c0.1,0,4.4,3.8,4.7,4c1,0.7,4,3.3,5.4,3c5.1-1.1,7.5-5.2,10-9.5
		l10.6-18.1C330,50.6,319.5,44.1,319.1,44.6L319.1,44.6z"/>
</g>
<g class="st1">
	<path class="st0" d="M290,83.2c-2.8,2.5-4.8,5.7-5.6,9.4c-0.1,0.5,0.4,1.4,0.6,1.8c1.4,2.6,2.9,5.1,4.7,7.4
		c-0.1-0.2,1.3,1.5,1.3,1.3c0.8-3.6,2.8-6.9,5.6-9.4c0.6-0.6-2.5-5.1-2.8-5.6C293.6,87.8,290.4,82.8,290,83.2L290,83.2z"/>
</g>
<g class="st1">
	<path class="st0" d="M359.4,87.9c6.1,0.5,10.1,6.4,12.5,11.5c0.5,1.1,1.5,6.8,3.4,6.5c3.3-0.6,6.7-3.4,9.4-5.4
		c1.7-1.2,1.4-1.6-0.5-0.8c-2.6,1.3-5.1,2.8-7.5,4.5l-0.4,0.3l9.3-5c-1.6-0.7-1.9-2.9-2.3-4.4c-0.9-2.5-2-4.8-3.5-6.9
		c-2.4-3.6-5.9-6.4-10.3-6.7c-1.9-0.2-5.3,2.6-6.7,3.5C362.4,85.3,358.7,87.8,359.4,87.9L359.4,87.9z"/>
</g>
<g class="st1">
	<path class="st0" d="M381.6,110.6c2.5,1.9,4.5,4.4,5.9,7.3c0.3,0.6,1.8,1.3,2.4,1.6c1.4,0.8,2.8,1.6,4.2,2.3
		c1.1,0.6,2.2,1.1,3.4,1.5c0.3,0.1,1,0.4,0.8-0.1c-1.6-3.2-4-6-6.9-8.1c-2.3-1.6-4.8-3-7.3-4.1C383.6,110.7,379.7,109.2,381.6,110.6
		L381.6,110.6z"/>
</g>
<g class="st1">
	<path class="st0" d="M352.8,111.9l-2.8,7.3c-0.5,1.4-2.2,3.5-1.5,5.1s11.5-5.1,12.8-6.2c1.8-1.5-2,0.1-2.4,0.2
		c-2.6,1-5.2,2.3-7.4,4c-0.3,0.2-0.6,0.5-0.9,0.8l6.6-3.4l-0.3,0.1l2.7-0.9c-1.2,0.1,0.8-4.2,1-4.5c1.2-2.5,2.1-5.3,3.1-7.9
		c0.1-0.2-2,0.5-1.8,0.4c-1.4,0.5-2.7,1.1-4,1.8S353.4,110.5,352.8,111.9L352.8,111.9z"/>
</g>
<g class="st1">
	<path class="st0" d="M408,74.6c6.9,0.6,13,6.5,12.6,13.6c0,0.3,5.7-1.4,6-1.5c0.7-0.3,5.5-1.6,5.6-2.7c0.4-7.4-6.1-13.1-13.1-13.8
		c-2.2-0.2-5.3,1.4-7.3,2.2C411.4,72.6,407.4,74.6,408,74.6L408,74.6z"/>
</g>
<g class="st1">
	<path class="st0" d="M440.9,94.8c5.2,3.1,5.6,11.9,9.7,16.4c4.7,5.2,11.7,7.3,15.4,13.5c1,1.7,5.1,2.9,6.7,3.6
		c0.4,0.2,4.6,1.8,4.2,1.1c-3.9-6.6-11.5-9.1-16.4-14.6s-4.2-12.9-11.3-17c-2.5-1.5-5.2-2.7-7.9-3.7
		C439.3,93.4,439.1,93.8,440.9,94.8L440.9,94.8z"/>
</g>
<g class="st1">
	<path class="st0" d="M248.6,101.4c0,0.1-0.1,0.2-0.1,0.4c2.3,3,4.6,6,6.9,9c-1.2-3.5,6.7-11.9,8.7-14.8c3.5-4.9,7.2-9.8,10.9-14.6
		c7.9-10.2,16.2-20.1,24.4-30c7.3-8.8,14.8-17.3,25-22.8c4.3-2.4,9.4-3.2,14.2-2c1.6,1,1.9,0.9,0.7-0.4c0.7,1.4,1.3,2.8,1.8,4.2
		c0.9,2.3,1.4,4.8,1.5,7.3c0.1,1.9,3.2,4.9,4.4,6.2c0.3,0.3,3.3,3.7,3.3,2.9c-0.5-10.5-8.6-23.5-17.4-29.2c-5.3-3.5-13.1-0.5-18,2.2
		c-7.1,3.8-12.8,9.8-18.1,15.7c-11.8,13.3-23,27.4-33.8,41.5c-5.5,7.2-10.7,14.7-15.6,22.3c-1.9,2.9,5.8,9.9,7.6,11.6
		c0.2,0.3,0.5,0.4,0.8,0.5l0.4-0.4C257.2,110.1,248.8,101.1,248.6,101.4L248.6,101.4z"/>
</g>
<path class="st0" d="M181.2,350.5l-3.2,5.2c-8.4-4.4-14.5-12.2-16.6-21.5c-2.8,12.2-11.1,18.3-20.5,21.2l-0.8-1.5
	c7.7-3.7,14.8-9.2,17-20.7h-15.2v-2.5h15.7c0.1-1.1,0.3-2.3,0.3-3.5c0.1-2.3,0.1-5.2,0.1-7.8h-13.8v-2.3h32.7v2.4h-14.2
	c0.1,3.1-0.1,6.2-0.3,9.2c0,0.7-0.1,1.4-0.2,2h17.1v2.5h-16.2C166.2,342.5,173.6,347.6,181.2,350.5z"/>
<path class="st0" d="M221.7,327.2c-1.7,9.3-6.1,14.1-14,17.3L207,343c6.5-3.7,9.6-7.7,10.8-15.8h-4.5c-2.8,8.8-8.7,14.3-17,18
	l-0.8-1.4c8.1-4.6,13.9-11.8,14.9-22.4h-5.8c-0.4,0.9-0.8,1.7-1.2,2.5c1.8,1,3.6,2.2,5.1,3.6l-2.7,2.7c-1-1.6-2.2-3.2-3.4-4.6
	c-0.7,1.3-1.6,2.6-2.5,3.8c1.9,1.1,3.7,2.5,5.3,4.1l-2.8,2.7c-1-1.9-2.2-3.7-3.6-5.4c-1,1.2-2.1,2.3-3.2,3.4l-1.2-1.1
	c4.6-5.7,6.9-12.6,7.8-19.4l4.3,1c-0.3,1.6-0.8,3.2-1.3,4.8h4.8l0.9-0.8l3.9,1.5c-0.2,1.7-0.6,3.4-1,5.1l4.2,0
	c0.4-3.8,0.5-7.6,0.5-11.5l4.1,0.2c0.1,3.8-0.1,7.5-0.6,11.3h11.2v1.9h-9.9c1.5,5.7,5.4,10.4,10.7,12.9l-3.5,4.5
	C228.4,343,223.1,338.2,221.7,327.2L221.7,327.2z M201.7,344.5l1.5,0.6c-0.7,4-2.4,7.7-4.8,11l-3.6-3
	C197.7,350.8,200.1,347.9,201.7,344.5L201.7,344.5z M209.2,345c1.9,2.9,3.5,6.1,4.6,9.4l-4.3,1.3c-0.4-2.7-1.2-7-1.9-10.1L209.2,345
	z M217.9,344.4c2.5,2.8,4.6,5.8,6.4,9.1l-4.2,2.1c-0.7-2.6-2.3-7-3.6-10.3L217.9,344.4z M227.5,323.8c-0.8-2.7-1.7-5.4-2.9-8
	l1.4-0.9c2.1,2.1,3.8,4.5,5.2,7.1L227.5,323.8z M235,353.1l-4.1,2.5c-1.3-3.6-2.9-7.1-4.8-10.4l1.3-0.9
	C230.3,346.9,232.9,349.8,235,353.1z"/>
<path class="st0" d="M271,348.8l0.5,1.5c-4.6,2.2-14,4.2-18.9,4.8l-1.2-4.4c2,0,4-0.1,6-0.2v-14.4c-2.7,1.8-5.6,3.2-8.7,4.2
	l-0.6-1.5c4.8-2.2,9-5.5,12.1-9.7h-10.5v-2h16.9V325h-12.1v-1.9h12.1v-2.2h-14.3v-2h10.9c-1.2-1.4-2.8-3.2-4-4.4l0.8-1.2
	c2.3,0.9,4.6,2.1,6.5,3.6l-1.7,2h7.1c1-1.8,1.7-3.7,2.2-5.7l4.2,1.6c-1.3,1.5-2.7,2.9-4.3,4.1h11.1v2h-14.5v2.2H283v1.9h-12.3v2.2
	h17.4v2h-13.7c4.2,4.3,12.1,5.9,15.2,6.5l-2.4,4.2c-2.8-0.8-5.4-2-7.8-3.8v8.7h-18v5.4C264.6,349.9,267.8,349.4,271,348.8z
	 M259.6,334.7h9.5c-1.1-1.3-2.4-2.6-3.5-3.6l0.8-1.4c2.1,0.8,4.1,1.8,5.9,3.1l-1.5,1.9h6.7c-1.9-1.5-3.6-3.4-4.8-5.5h-7.4
	C263.6,331.3,261.7,333.2,259.6,334.7L259.6,334.7z M275.5,336.7h-14.2v2.1h14.1L275.5,336.7z M275.5,340.6h-14.2v2.3h14.1
	L275.5,340.6z M279.6,348.7c2.8,0.9,5.5,2,8.2,3.3l-2.5,4.1c-5.2-3.5-10.6-6.5-16.3-9.1l0.5-1.4c2.7,0.7,5.4,1.5,8.1,2.4
	c1.5-1.5,2.8-3.2,3.8-5.1l3.6,2.5C283.3,346.6,281.5,347.7,279.6,348.7L279.6,348.7z"/>
<path class="st0" d="M342.7,351v2.5h-38.4V351h17.2v-11.5h-13v-2.3h13v-9.8h-9.2c-1.8,3.5-4.2,6.7-7.1,9.3l-1.2-1
	c3.6-4.9,6.3-11.6,7.6-20l4.6,1.3c-0.7,2.8-1.6,5.5-2.8,8.2h8.2V314h4.2v11.3h13.9v2.2h-13.9v9.8h12.9v2.3h-12.9V351H342.7z"/>
<path class="st0" d="M379.1,352.1h17.7v2h-39.6v-2H375v-6.2h-13v-2h13v-4.9h4.2v4.9H392v2h-12.9L379.1,352.1z M364,340.6h-4v-24.8
	h18v2h-6.3v4.6h5.5v8.5h-5.5v5.4h5.7v2H364V340.6z M364,322.4h3.9v-4.6H364V322.4z M364,328.9h9.3v-4.4H364V328.9z M364,330.9v5.4
	h3.9v-5.3L364,330.9z M384.8,331c-2.2-4-3.5-8.4-3.9-13h-2v-1.9h10.6l1-0.8l4,1.5c-1.4,6.2-3.1,10.7-5.8,14.4
	c2.4,2.4,5.4,4.2,8.6,5.4l-2.7,4.3c-3.2-1.8-6-4.3-8.1-7.2c-2.1,2.1-4.5,3.8-7.2,5.1l-0.9-1.4C380.9,335.7,383.1,333.5,384.8,331
	L384.8,331z M386.4,328.3c1.6-3.2,2.7-6.7,3.3-10.3h-7.3C383,321.7,384.4,325.2,386.4,328.3L386.4,328.3z"/>
<path class="st0" d="M452,348.9l-2.6,4.9c-6.6-2.4-12.2-6.8-16.1-12.6v14.8h-4.1v-14.3c-3.5,5-10.3,9.7-17.6,12.5l-0.7-1.5
	c7.3-3.8,12.4-8.2,15.5-13.1h-13.8v-2.5h16.6v-3.2h-12v-17h28.3v17h-12.2v3.2H450v2.5h-15.8C439.2,344.4,445.8,347.4,452,348.9z
	 M421.2,324h8v-5.4h-8V324z M429.2,331.6v-5.7h-8v5.7H429.2z M441.4,318.7h-8.1v5.3h8.1V318.7z M441.4,325.9h-8.1v5.7h8.1V325.9z"/>
<path class="st0" d="M465.7,354.2l-0.8-1.4c4.9-3,9.1-6.9,12.4-11.5l3.9,2.5C476.8,348.3,471.5,351.9,465.7,354.2z M488.2,338.8
	v12.4c0,4.6-3.7,6.7-11.7,1.9l0.5-1.6c6.2,1.5,7,1,7-1.8v-10.4c-5.7,0.6-11.3,1.1-14.6,1.2l-1.1-4.2c2.4,0.2,5.1,0.2,7.8,0.2
	c4.2-2.1,8-4.6,11.6-7.6c-5,1-10.1,1.7-15.2,2.1l-1.1-4.2c1.7,0.1,3.4,0.2,5.2,0.2c2.3-2.1,4.5-4.5,6.4-7c-5.2,0.5-10.2,0.8-14,0.9
	l-0.3-1.6c10.5-1,21-2.4,29-5.6l4.2,3.5c-4.2,1-8.5,1.7-12.8,2.2c-3,2.8-6.2,5.4-9.7,7.8c3.6,0,7.3,0,10.7-0.3
	c1.8-1.7,3.5-3.5,5.1-5.4l4,2.5c-5.5,5.3-11.9,9.5-18.9,12.6c6.2-0.2,12.5-0.6,17.2-1.1c-1.1-1.5-2.2-2.9-3.4-4.3l1.1-1.1
	c3.7,2.5,7.1,5.5,9.9,9l-3.6,2.8c-1-1.7-2-3.3-2.9-4.7C495.8,337.6,492.1,338.3,488.2,338.8L488.2,338.8z M505.6,349.8l-3.1,3.7
	c-3.8-4-8-7.7-12.5-11l0.8-1.4C496.1,343.2,501.1,346.2,505.6,349.8L505.6,349.8z"/>
<path class="st0" d="M520.7,317h22.2v2h-10.6c-0.4,2.4-1.1,4.7-2,6.9h5.7l1-1l4.3,1.4c-2.4,14.1-8.2,23.8-20.8,29.6l-0.8-1.5
	c10.1-6.5,15.2-15.6,16.7-26.7h-6.8c-0.7,1.6-1.5,3.1-2.4,4.5c2.1,1.3,4,3,5.6,4.9l-3.3,3c-1-2.1-2.2-4-3.6-5.9
	c-1.4,2-3,3.8-4.9,5.3l-1.2-1.3c4-4.6,7-11.9,8.2-19.5h-7.2L520.7,317z M548.2,344.4h-4v-25.3h4V344.4z M557.3,314v36.4
	c0,5.7-4.3,7-12.1,1.9l0.5-1.5c6.7,1.7,7.5,1.4,7.5-1.2V314L557.3,314z"/>
</svg>
